<?xml version="1.0" encoding="utf-8"?>
<!-- Generator: Adobe Illustrator 16.2.1, SVG Export Plug-In . SVG Version: 6.00 Build 0)  -->
<!DOCTYPE svg PUBLIC "-//W3C//DTD SVG 1.1//EN" "http://www.w3.org/Graphics/SVG/1.1/DTD/svg11.dtd">
<svg version="1.1" id="Layer_1" xmlns="http://www.w3.org/2000/svg" xmlns:xlink="http://www.w3.org/1999/xlink" x="0px" y="0px"
	 width="260px" height="260px" viewBox="0 0 260 260" enable-background="new 0 0 260 260" xml:space="preserve">
<g>
	<g>
		<g>
			<circle fill="#434343" cx="130" cy="130" r="58.5"/>
		</g>
		<g transform="translate(0,0)">
			<path fill="#888888" stroke="#111111" stroke-width="0.5" stroke-miterlimit="10" d="M150.029,75.995
				c1.529,0.567,3.033,1.199,4.508,1.894l-0.895,1.9l0.464,2.563c0.45,0.227,0.896,0.461,1.339,0.701l2.371-1.079l1.053-1.817
				c1.41,0.817,2.786,1.694,4.123,2.628l-1.203,1.721l0.023,2.604c0.404,0.3,0.805,0.606,1.201,0.917l2.52-0.662l1.344-1.613
				c1.252,1.044,2.461,2.141,3.619,3.287l-1.477,1.494l-0.416,2.571c0.348,0.364,0.691,0.733,1.028,1.107l2.595-0.227l1.598-1.363
				c1.059,1.241,2.063,2.525,3.012,3.852l-1.707,1.222l-0.846,2.463c0.281,0.418,0.558,0.84,0.827,1.265l2.596,0.215l1.806-1.073
				c0.832,1.401,1.605,2.837,2.317,4.305l-1.89,0.916l-1.25,2.285c0.207,0.459,0.408,0.922,0.602,1.387l2.521,0.65l1.961-0.752
				c0.584,1.522,1.104,3.068,1.557,4.635l-2.017,0.583l-1.618,2.042c0.127,0.488,0.246,0.977,0.358,1.468l2.376,1.067l2.059-0.411
				c0.319,1.599,0.57,3.211,0.752,4.831l-2.087,0.234l-1.939,1.739c0.042,0.502,0.077,1.004,0.104,1.507l2.162,1.454l2.099-0.057
				c0.044,1.63,0.019,3.262-0.075,4.889l-2.098-0.121l-2.205,1.385c-0.043,0.502-0.094,1.004-0.151,1.504l1.885,1.798l2.079,0.3
				c-0.232,1.613-0.533,3.217-0.902,4.805l-2.045-0.475l-2.408,0.994c-0.127,0.486-0.262,0.973-0.403,1.456l1.554,2.091l1.998,0.646
				c-0.502,1.552-1.068,3.081-1.7,4.584l-1.937-0.813l-2.541,0.572c-0.208,0.459-0.422,0.914-0.644,1.367l1.179,2.323l1.859,0.975
				c-0.756,1.444-1.574,2.855-2.45,4.23l-1.771-1.128l-2.602,0.134c-0.283,0.417-0.571,0.829-0.865,1.239l0.768,2.488l1.67,1.274
				c-0.99,1.296-2.035,2.549-3.131,3.756l-1.555-1.411l-2.586-0.309c-0.35,0.363-0.703,0.723-1.062,1.075l0.336,2.583l1.43,1.539
				c-1.194,1.109-2.436,2.168-3.72,3.172l-1.294-1.654l-2.497-0.74c-0.405,0.3-0.815,0.593-1.229,0.881l-0.104,2.602l1.148,1.758
				c-1.365,0.893-2.768,1.727-4.203,2.499l-0.995-1.849l-2.337-1.152c-0.449,0.227-0.902,0.446-1.359,0.66l-0.543,2.547l0.836,1.927
				c-1.496,0.648-3.02,1.233-4.564,1.753l-0.67-1.991l-2.107-1.529c-0.482,0.146-0.966,0.286-1.451,0.42l-0.967,2.419l0.498,2.04
				c-1.584,0.386-3.184,0.705-4.795,0.956l-0.322-2.075l-1.819-1.864c-0.5,0.063-1.001,0.119-1.502,0.169l-1.36,2.221l0.146,2.095
				c-1.627,0.113-3.257,0.157-4.888,0.133l0.033-2.101l-1.478-2.145c-0.503-0.022-1.006-0.052-1.509-0.087l-1.716,1.959l-0.21,2.089
				c-1.623-0.163-3.237-0.396-4.839-0.696l0.387-2.064l-1.094-2.363c-0.492-0.106-0.983-0.221-1.472-0.341l-2.023,1.641
				l-0.561,2.024c-1.571-0.436-3.123-0.938-4.652-1.504l0.73-1.97l-0.679-2.515c-0.467-0.188-0.932-0.383-1.393-0.585l-2.271,1.275
				l-0.895,1.899c-1.475-0.693-2.92-1.451-4.331-2.268l1.052-1.817l-0.244-2.593c-0.429-0.266-0.854-0.536-1.274-0.812l-2.454,0.873
				l-1.203,1.721c-1.336-0.934-2.633-1.924-3.885-2.967l1.344-1.613l0.197-2.598c-0.377-0.333-0.75-0.672-1.119-1.016l-2.566,0.445
				l-1.477,1.494c-1.16-1.146-2.27-2.342-3.328-3.582l1.598-1.363l0.633-2.525c-0.316-0.393-0.626-0.79-0.931-1.191l-2.604,0.006
				l-1.708,1.223c-0.949-1.326-1.841-2.691-2.675-4.093l1.805-1.073l1.051-2.383c-0.245-0.439-0.484-0.884-0.716-1.33l-2.568-0.435
				l-1.89,0.916c-0.711-1.468-1.36-2.964-1.944-4.485l1.96-0.753l1.439-2.171c-0.167-0.476-0.328-0.953-0.481-1.434l-2.458-0.861
				l-2.017,0.584c-0.453-1.566-0.839-3.151-1.158-4.75l2.06-0.411l1.785-1.896c-0.084-0.497-0.162-0.995-0.232-1.493l-2.277-1.266
				l-2.087,0.234c-0.182-1.62-0.295-3.247-0.339-4.877l2.099-0.057l2.08-1.568c0-0.503,0.008-1.007,0.023-1.511l-2.03-1.631
				l-2.097-0.122c0.095-1.628,0.258-3.251,0.49-4.865l2.079,0.299l2.315-1.194c0.086-0.497,0.179-0.992,0.279-1.485l-1.726-1.951
				l-2.045-0.474c0.368-1.589,0.804-3.161,1.305-4.712l1.998,0.646l2.483-0.785c0.168-0.475,0.344-0.947,0.526-1.417l-1.371-2.215
				l-1.936-0.813c0.631-1.503,1.326-2.979,2.083-4.424l1.86,0.975l2.581-0.354c0.246-0.44,0.499-0.875,0.757-1.308l-0.977-2.415
				l-1.771-1.128c0.876-1.375,1.811-2.712,2.8-4.008l1.669,1.275l2.603,0.087c0.317-0.392,0.64-0.779,0.968-1.161l-0.555-2.545
				l-1.555-1.412c1.096-1.207,2.243-2.367,3.438-3.477l1.429,1.539l2.551,0.525c0.378-0.332,0.762-0.659,1.15-0.98l-0.117-2.602
				l-1.294-1.654c1.285-1.004,2.611-1.954,3.976-2.846l1.149,1.758l2.425,0.949c0.43-0.264,0.863-0.521,1.299-0.772l0.325-2.584
				l-0.996-1.849c1.436-0.773,2.904-1.484,4.399-2.133l0.835,1.927l2.23,1.345c0.468-0.187,0.938-0.368,1.411-0.542l0.757-2.492
				l-0.669-1.991c1.546-0.52,3.113-0.973,4.697-1.359l0.498,2.04l1.971,1.703c0.493-0.105,0.987-0.204,1.482-0.295l1.167-2.329
				l-0.323-2.075c1.611-0.25,3.232-0.433,4.858-0.545l0.146,2.095l1.655,2.011c0.503-0.021,1.007-0.034,1.511-0.041l1.543-2.098
				l0.033-2.1c1.631,0.025,3.259,0.12,4.881,0.284l-0.211,2.089l1.291,2.262c0.5,0.064,0.998,0.136,1.496,0.215l1.877-1.807
				l0.387-2.064c1.602,0.3,3.191,0.669,4.763,1.104l-0.561,2.024l0.89,2.448c0.481,0.148,0.961,0.303,1.438,0.465l2.155-1.463
				L150.029,75.995 M146.419,70.732c-32.732-9.068-66.619,10.116-75.687,42.849c-9.068,32.732,10.116,66.618,42.849,75.687
				c32.732,9.068,66.618-10.115,75.687-42.849C198.336,113.687,179.152,79.8,146.419,70.732z"/>
		</g>
		<g transform="translate(22,-60)rotate(3,22,-60)">
			<path fill="#C19849" stroke="#333333" stroke-width="0.5" stroke-miterlimit="10" d="M150.948,173.833
				c0.005,1.373-0.185,2.74-0.566,4.06l2.018,0.583l1.445,2.258c-0.217,0.549-0.46,1.088-0.728,1.614l-2.65,0.409l-1.771-1.128
				c-0.738,1.158-1.637,2.205-2.67,3.109l1.382,1.582L147.403,189c-0.48,0.345-0.975,0.666-1.485,0.963l-2.451-1.088l-0.88-1.906
				c-1.247,0.576-2.57,0.97-3.928,1.172l0.308,2.077l-1.453,2.253c-0.59,0.031-1.181,0.034-1.77,0.009l-1.474-2.24l0.29-2.081
				c-1.359-0.189-2.686-0.573-3.937-1.137l-0.865,1.914l-2.44,1.11c-0.512-0.293-1.011-0.61-1.493-0.951l-0.028-2.681l1.369-1.593
				c-1.041-0.895-1.951-1.934-2.697-3.086l-1.762,1.143l-2.653-0.386c-0.273-0.524-0.521-1.06-0.742-1.607l1.426-2.271l2.013-0.6
				c-0.394-1.316-0.596-2.681-0.602-4.055l-2.1,0.009l-2.024-1.759c0.053-0.588,0.135-1.173,0.244-1.753l2.427-1.139l2.018,0.583
				c0.381-1.32,0.948-2.578,1.687-3.736l-1.771-1.128l-0.751-2.574c0.363-0.465,0.747-0.913,1.153-1.343l2.658,0.354l1.381,1.581
				c1.034-0.904,2.192-1.655,3.439-2.231l-0.88-1.906l0.759-2.572c0.557-0.195,1.123-0.364,1.697-0.506l2.045,1.735l0.307,2.077
				c1.359-0.201,2.738-0.207,4.098-0.018l0.29-2.08l2.029-1.752c0.574,0.137,1.142,0.301,1.7,0.491l0.783,2.565l-0.864,1.914
				c1.251,0.565,2.416,1.306,3.457,2.201l1.369-1.593l2.655-0.377c0.41,0.425,0.799,0.87,1.165,1.332l-0.729,2.581l-1.761,1.143
				c0.747,1.152,1.326,2.405,1.719,3.721l2.012-0.601l2.437,1.118c0.114,0.579,0.202,1.163,0.26,1.751l-2.007,1.776L150.948,173.833
				 M147.047,173.85c-0.024-5.799-4.746-10.479-10.546-10.454c-5.798,0.025-10.479,4.747-10.454,10.545
				c0.025,5.799,4.747,10.48,10.546,10.454C142.392,184.37,147.073,179.649,147.047,173.85z"/>
		</g>
		<g transform="translate(0,90)">
			<path fill="#C19849" stroke="#333333" stroke-width="0.5" stroke-miterlimit="10" d="M88.798,49.357
				c0.625-1.316,1.357-2.577,2.189-3.771l-1.723-1.201l-0.721-2.557c0.347-0.443,0.705-0.876,1.075-1.299l2.647,0.23l1.501,1.468
				c1.018-1.041,2.12-1.996,3.295-2.855l-1.24-1.695l0.149-2.652c0.471-0.307,0.951-0.6,1.439-0.88l2.428,1.077l0.944,1.876
				c1.301-0.654,2.653-1.2,4.043-1.631l-0.622-2.006l1.002-2.46c0.545-0.137,1.094-0.258,1.646-0.365l1.947,1.808l0.283,2.081
				c1.442-0.196,2.899-0.273,4.354-0.229l0.063-2.099l1.747-2.002c0.56,0.048,1.119,0.111,1.675,0.189l1.255,2.342l-0.408,2.06
				c1.428,0.283,2.831,0.683,4.193,1.197l0.741-1.965l2.302-1.326c0.515,0.227,1.022,0.468,1.523,0.724l0.427,2.622l-1.055,1.816
				c1.259,0.731,2.456,1.565,3.577,2.494l1.34-1.618l2.607-0.507c0.412,0.382,0.814,0.775,1.205,1.179l-0.447,2.619l-1.588,1.375
				c0.954,1.101,1.814,2.277,2.574,3.52l1.791-1.095l2.632,0.367c0.267,0.495,0.519,0.997,0.758,1.507l-1.274,2.331l-1.947,0.785
				c0.545,1.351,0.977,2.743,1.291,4.165l2.051-0.454l2.369,1.202c0.092,0.555,0.167,1.111,0.228,1.67l-1.962,1.792l-2.098,0.11
				c0.077,1.453,0.033,2.911-0.131,4.357l2.087,0.236l1.851,1.906c-0.094,0.555-0.203,1.106-0.327,1.654l-2.438,1.058l-2.019-0.577
				c-0.4,1.4-0.915,2.766-1.539,4.08l1.896,0.9l1.131,2.404c-0.268,0.494-0.551,0.98-0.846,1.458l-2.648,0.209l-1.723-1.201
				c-0.834,1.194-1.764,2.317-2.781,3.358l1.502,1.469l0.29,2.641c-0.415,0.38-0.84,0.748-1.274,1.104l-2.573-0.663l-1.239-1.695
				c-1.175,0.859-2.419,1.62-3.72,2.274l0.943,1.876l-0.583,2.592c-0.516,0.225-1.037,0.436-1.564,0.631l-2.218-1.463l-0.622-2.006
				c-1.391,0.432-2.814,0.747-4.257,0.943l0.283,2.081l-1.393,2.263c-0.561,0.045-1.122,0.074-1.684,0.088l-1.624-2.104l0.063-2.099
				c-1.456-0.044-2.904-0.208-4.333-0.49l-0.408,2.06l-2.053,1.688c-0.544-0.14-1.085-0.294-1.621-0.463l-0.853-2.517l0.741-1.965
				c-1.362-0.514-2.68-1.14-3.938-1.87l-1.055,1.815l-2.489,0.93c-0.47-0.309-0.931-0.63-1.383-0.964l0.011-2.657l1.339-1.618
				c-1.121-0.928-2.164-1.947-3.118-3.048l-1.587,1.375l-2.656,0.071c-0.344-0.445-0.676-0.898-0.995-1.361l0.873-2.51l1.792-1.095
				c-0.759-1.242-1.415-2.546-1.959-3.896l-1.948,0.785l-2.535-0.795c-0.182-0.532-0.348-1.069-0.5-1.611l1.64-2.09l2.05-0.453
				c-0.314-1.422-0.511-2.867-0.588-4.32l-2.097,0.109l-2.139-1.574c0.001-0.562,0.018-1.125,0.051-1.686l2.23-1.445l2.086,0.236
				c0.164-1.446,0.447-2.877,0.847-4.276l-2.019-0.577l-1.512-2.184c0.184-0.531,0.382-1.059,0.595-1.578l2.578-0.643L88.798,49.357
				 M92.321,51.029c-5.332,11.225-0.554,24.646,10.671,29.979c11.225,5.33,24.646,0.553,29.977-10.672
				c5.332-11.225,0.554-24.646-10.671-29.977C111.073,35.028,97.652,39.805,92.321,51.029z"/>
		</g>
		<g transform="translate(-83.56238925925012,-99.58577760546713)rotate(2,-83.56238925925012,-99.58577760546713)">
			<path fill="#C19849" stroke="#333333" stroke-width="0.5" stroke-miterlimit="10" d="M219.709,165.872
				c1.353-0.233,2.733-0.27,4.096-0.112l0.243-2.086l1.988-1.799c0.577,0.123,1.149,0.274,1.711,0.452l0.84,2.546l-0.82,1.933
				c1.266,0.536,2.445,1.25,3.508,2.121l1.331-1.624l2.646-0.438c0.419,0.416,0.817,0.851,1.195,1.305l-0.67,2.597l-1.734,1.183
				c0.773,1.134,1.382,2.374,1.804,3.68l1.998-0.646l2.461,1.061c0.128,0.576,0.227,1.159,0.3,1.744l-1.967,1.823l-2.099,0.058
				c0.037,1.373-0.122,2.744-0.472,4.071l2.031,0.536l1.496,2.224c-0.203,0.554-0.435,1.098-0.691,1.63l-2.64,0.47l-1.798-1.086
				c-0.709,1.175-1.585,2.243-2.598,3.17l1.418,1.549l0.057,2.68c-0.471,0.356-0.96,0.689-1.462,0.997l-2.475-1.031l-0.925-1.886
				c-1.233,0.604-2.546,1.029-3.9,1.262l0.356,2.07l-1.401,2.286c-0.589,0.044-1.179,0.06-1.769,0.048l-1.524-2.206l0.242-2.086
				c-1.364-0.158-2.699-0.511-3.963-1.047l-0.82,1.934l-2.415,1.166c-0.519-0.281-1.025-0.587-1.515-0.915l-0.089-2.68l1.331-1.624
				c-1.062-0.87-1.994-1.889-2.768-3.023l-1.735,1.183l-2.661-0.325c-0.285-0.517-0.545-1.048-0.779-1.59l1.373-2.303l1.998-0.647
				c-0.423-1.306-0.656-2.667-0.694-4.039l-2.099,0.058l-2.063-1.712c0.04-0.589,0.108-1.176,0.203-1.758l2.401-1.195l2.03,0.536
				c0.351-1.328,0.89-2.599,1.6-3.773l-1.797-1.087l-0.81-2.556c0.352-0.474,0.726-0.931,1.122-1.369l2.666,0.293l1.418,1.549
				c1.013-0.927,2.153-1.705,3.386-2.309l-0.924-1.886l0.7-2.588c0.553-0.208,1.114-0.39,1.684-0.545l2.084,1.687L219.709,165.872
				 M220.369,169.715c-5.715,0.982-9.553,6.411-8.57,12.126c0.982,5.715,6.411,9.552,12.126,8.57
				c5.715-0.982,9.553-6.411,8.57-12.126C231.514,172.57,226.084,168.733,220.369,169.715z"/>
		</g>
		<g transform="translate(86.03646545265687,-122.87280664334881)rotate(-2,86.03646545265687,-122.87280664334881)">
			<path fill="#C19849" stroke="#333333" stroke-width="0.5" stroke-miterlimit="10" d="M76.921,250.778
				c-1.232,0.273-2.51,0.265-3.739-0.024l-0.48,2.045l-2.276,1.478c-0.584-0.233-1.149-0.509-1.692-0.827l-0.23-2.704l1.32-1.634
				c-0.982-0.793-1.771-1.797-2.312-2.938l-1.898,0.899l-2.575-0.858c-0.181-0.601-0.317-1.216-0.407-1.838l1.971-1.866l2.099,0.013
				c0.008-1.262,0.3-2.506,0.855-3.639l-1.887-0.923l-0.934-2.548c0.357-0.517,0.752-1.007,1.184-1.465l2.687,0.378l1.3,1.65
				c0.991-0.78,2.145-1.328,3.378-1.601l-0.455-2.05l1.409-2.319c0.628-0.043,1.257-0.039,1.884,0.012l1.38,2.337l-0.48,2.045
				c1.229,0.288,2.376,0.85,3.358,1.643l1.32-1.634l2.692-0.344c0.425,0.463,0.814,0.958,1.165,1.48l-0.967,2.536l-1.897,0.899
				c0.54,1.14,0.817,2.388,0.81,3.65l2.099,0.013l1.948,1.89c-0.098,0.621-0.242,1.234-0.431,1.834l-2.585,0.825l-1.886-0.923
				c-0.555,1.134-1.357,2.128-2.349,2.908l1.299,1.65l-0.263,2.701c-0.546,0.311-1.115,0.581-1.701,0.806l-2.257-1.506
				L76.921,250.778 M76.077,246.97c2.426-0.538,3.958-2.941,3.419-5.367c-0.538-2.426-2.94-3.957-5.366-3.419
				c-2.427,0.538-3.958,2.941-3.42,5.367C71.247,245.977,73.65,247.508,76.077,246.97z"/>
		</g>
	</g>
</g>
</svg>
